<svg width="509.99999999999994" height="510.25747" xmlns="http://www.w3.org/2000/svg">

 <g>
  <title>background</title>
  <rect fill="none" id="canvas_background" height="402" width="582" y="-1" x="-1"/>
 </g>
 <g>
  <title>Layer 1</title>
  <path id="svg_1" d="m427.82813,314.48438l-37.73829,-37.73829l-169.8164,-169.80859c-31.29688,-31.0625 -81.81641,-30.96875 -112.9961,0.21094c-31.17968,31.17968 -31.27343,81.69922 -0.21093,112.99609l169.80859,169.85938c6.94531,6.94922 18.21094,6.94922 25.16016,0c6.94531,-6.94922 6.94531,-18.21094 0,-25.16016l-169.8086,-169.85937c-17.36718,-17.36719 -17.36718,-45.51954 0,-62.88672c17.36719,-17.36719 45.51953,-17.36719 62.88672,0l169.85938,169.80859l37.73828,37.73438c31.26562,31.27734 31.2539,81.97656 -0.01953,113.23828c-31.27735,31.26172 -81.97266,31.2539 -113.23828,-0.02344l-31.44141,-31.45313l-176.10156,-176.10156l-12.58204,-12.57812c-43.97656,-45.35157 -43.41796,-117.60157 1.25,-162.27344c44.67188,-44.66797 116.92188,-45.22656 162.27344,-1.25l188.67969,188.68359c4.49609,4.49219 11.04688,6.2461 17.18359,4.60157c6.14063,-1.64454 10.9375,-6.4375 12.58204,-12.57813s-0.11329,-12.6875 -4.60547,-17.18359l-188.67969,-188.67969c-59.08985,-58.82031 -154.64063,-58.71094 -213.59375,0.24609c-58.95703,58.95313 -59.06641,154.50391 -0.2461,213.59375l188.67969,188.67969l31.48828,31.45313c45.41016,43.61718 117.375,42.89062 161.89063,-1.64063c44.51953,-44.52734 45.22656,-116.49219 1.59765,-161.89062l0.00001,0zm0,0"/>
  <line stroke-linecap="undefined" stroke-linejoin="undefined" id="svg_3" y2="10.541967" x2="500.39541" y1="501.332828" x1="8.288756" stroke-width="30" stroke="#ff0000" fill="none"/>
 </g>
</svg>